<svg xmlns="http://www.w3.org/2000/svg" width="222.595" height="224.195" viewBox="0 0 222.595 224.195">
  <g id="Grupo_11" data-name="Grupo 11" transform="translate(-1209.513 -440.805)">
    <g id="Grupo_10" data-name="Grupo 10" transform="translate(32.62 12.805)">
      <path id="Exclusión_2" data-name="Exclusión 2" d="M111.3,224.2a112.9,112.9,0,0,1-22.592-2.278A111.465,111.465,0,0,1,48.622,205.05,112.417,112.417,0,0,1,8.009,155.731,111.417,111.417,0,0,1,1.477,134.69c-.6-2.936-1.09-5.946-1.454-8.948H69.392c.4,1.255.864,2.511,1.382,3.735a43.52,43.52,0,0,0,80.152,0c.517-1.221.982-2.478,1.382-3.735h70.264c-.364,3.006-.854,6.017-1.454,8.948a111.444,111.444,0,0,1-16.867,40.082,112.445,112.445,0,0,1-49.319,40.614,111.572,111.572,0,0,1-21.042,6.531A112.9,112.9,0,0,1,111.3,224.2ZM69.622,98.647H0c.368-3.076.865-6.152,1.477-9.141A111.525,111.525,0,0,1,18.344,49.422,112.418,112.418,0,0,1,67.665,8.809,111.558,111.558,0,0,1,88.706,2.278a113.178,113.178,0,0,1,45.183,0,111.466,111.466,0,0,1,40.083,16.866,112.431,112.431,0,0,1,40.614,49.32,111.555,111.555,0,0,1,6.531,21.041c.614,3,1.111,6.076,1.477,9.14H152.077c-.341-1.011-.728-2.031-1.151-3.03a43.519,43.519,0,0,0-80.152,0c-.422,1-.809,2.017-1.151,3.03Z" transform="translate(1176.892 428)" fill="#bfbfbf"/>
      <circle id="Elipse_6" data-name="Elipse 6" cx="25" cy="25" r="25" transform="translate(1263.38 515.195)" fill="#bfbfbf"/>
    </g>
  </g>
</svg>
